<svg xmlns="http://www.w3.org/2000/svg" xmlns:xlink="http://www.w3.org/1999/xlink" preserveAspectRatio="xMidYMid" width="3347" height="438" viewBox="0 0 3347 438">
  <defs>
    <style>
      .cls-1 {
        fill: #086db0;
        filter: url(#filter-chain-1);
        fill-rule: evenodd;
      }
    </style>

    <filter id="filter-chain-1" filterUnits="userSpaceOnUse">
      <feOffset dx="2.5" dy="4.33" in="SourceAlpha"/>
      <feGaussianBlur stdDeviation="3.873" result="dropBlur"/>
      <feFlood flood-color="#7c6f71" flood-opacity="0.4"/>
      <feComposite operator="in" in2="dropBlur" result="dropShadowComp"/>
      <feComposite in="SourceGraphic" result="shadowed"/>
      <feOffset dx="3.5" dy="6.062" in="SourceAlpha"/>
      <feGaussianBlur stdDeviation="3.606" result="innerShadowBlur"/>
      <feFlood flood-opacity="0.25"/>
      <feComposite operator="out" in2="innerShadowBlur"/>
      <feComposite operator="in" in2="SourceAlpha"/>
      <feBlend in2="shadowed" result="innerShadow"/>
    </filter>
  </defs>
  <path d="M3310.008,42.729 C3300.136,40.717 3287.444,39.711 3271.923,39.711 C3250.461,39.711 3230.292,42.348 3211.419,47.615 C3192.544,52.887 3175.011,60.023 3158.823,69.028 C3142.627,78.037 3127.635,88.527 3113.840,100.501 C3100.043,112.478 3087.585,125.175 3076.473,138.584 L3076.473,412.790 L3040.546,412.790 L3040.546,17.866 L3076.473,17.866 L3076.473,98.345 C3089.309,85.123 3103.250,72.958 3118.295,61.843 C3133.335,50.731 3149.193,41.197 3165.864,33.243 C3182.535,25.295 3200.018,19.065 3218.318,14.561 C3236.615,10.061 3255.541,7.807 3275.085,7.807 C3281.791,7.807 3287.826,7.949 3293.193,8.238 C3298.555,8.524 3303.492,8.911 3307.996,9.388 C3312.496,9.869 3316.761,10.394 3320.786,10.967 C3324.809,11.543 3328.928,12.215 3333.146,12.980 L3333.146,48.333 C3327.585,46.609 3319.875,44.741 3310.008,42.729 ZM2893.971,333.746 C2884.387,348.311 2872.747,360.671 2859.048,370.825 C2845.346,380.984 2830.112,389.125 2813.347,395.256 C2796.578,401.391 2778.377,405.846 2758.737,408.621 C2739.093,411.401 2718.448,412.790 2696.797,412.790 L2493.011,412.790 L2493.011,17.866 L2696.223,17.866 C2728.603,17.866 2758.687,21.027 2786.474,27.350 C2814.255,33.674 2838.354,44.453 2858.760,59.687 C2879.168,74.921 2895.165,95.184 2906.761,120.478 C2918.352,145.771 2924.150,177.294 2924.150,215.040 C2924.150,240.334 2921.515,262.801 2916.247,282.442 C2910.974,302.085 2903.549,319.187 2893.971,333.746 ZM2881.030,158.224 C2876.811,141.732 2870.770,127.399 2862.911,115.218 C2855.047,103.039 2845.457,92.826 2834.140,84.580 C2822.824,76.334 2810.074,69.671 2795.883,64.586 C2781.691,59.503 2766.254,55.909 2749.570,53.799 C2732.886,51.688 2715.147,50.633 2696.356,50.633 L2528.941,50.633 L2528.941,380.023 L2696.356,380.023 C2724.541,380.023 2750.334,377.485 2773.733,372.401 C2797.130,367.318 2817.219,358.497 2833.998,345.937 C2850.776,333.375 2863.868,316.497 2873.262,295.303 C2882.659,274.110 2887.359,247.403 2887.359,215.185 C2887.359,193.707 2885.249,174.720 2881.030,158.224 ZM2312.234,17.866 L2348.161,17.866 L2348.161,412.790 L2312.234,412.790 L2312.234,17.866 ZM2012.887,255.781 L2035.234,231.064 C2084.503,282.829 2208.195,412.790 2208.195,412.790 L2163.070,412.790 L2012.887,255.781 ZM1776.769,412.790 L2153.584,17.866 L2198.998,17.866 L1822.184,412.790 L1776.769,412.790 ZM1786.255,17.866 L1831.668,17.866 C1831.668,17.866 1932.114,123.523 1974.166,167.757 L1952.315,191.722 L1786.255,17.866 ZM1603.895,382.610 C1582.720,395.067 1557.713,404.310 1528.876,410.346 C1500.035,416.382 1468.851,419.400 1435.319,419.400 C1398.911,419.400 1365.475,417.051 1335.007,412.357 C1304.541,407.665 1277.905,401.104 1255.104,392.669 L1255.104,350.993 C1267.355,356.166 1279.992,360.957 1293.012,365.363 C1306.032,369.774 1319.915,373.654 1334.658,377.004 C1349.402,380.359 1365.152,382.946 1381.902,384.764 C1398.655,386.589 1416.800,387.496 1436.330,387.496 C1463.905,387.496 1489.751,384.864 1513.877,379.591 C1538.002,374.324 1559.017,366.658 1576.918,356.597 C1594.818,346.537 1608.988,334.134 1619.426,319.376 C1629.860,304.622 1635.081,287.664 1635.081,268.502 L1635.081,193.771 C1625.887,206.229 1614.637,218.156 1601.330,229.555 C1588.023,240.959 1573.185,251.018 1556.814,259.735 C1540.441,268.457 1522.683,275.448 1503.538,280.717 C1484.388,285.990 1464.188,288.620 1442.937,288.620 C1418.810,288.620 1397.410,286.371 1378.747,281.866 C1360.076,277.366 1343.802,271.187 1329.920,263.327 C1316.038,255.472 1304.312,246.132 1294.736,235.304 C1285.162,224.480 1277.457,212.696 1271.617,199.950 C1265.779,187.209 1261.566,173.844 1258.980,159.855 C1256.393,145.869 1255.104,131.687 1255.104,117.315 L1255.104,17.866 L1291.893,17.866 L1291.893,109.442 C1291.893,131.453 1294.522,151.452 1299.786,169.442 C1305.042,187.433 1313.697,202.842 1325.751,215.665 C1337.806,228.491 1353.636,238.394 1373.244,245.377 C1392.854,252.365 1417.098,255.855 1445.986,255.855 C1468.366,255.855 1488.928,252.841 1507.674,246.814 C1526.420,240.787 1543.544,232.650 1559.038,222.410 C1574.532,212.171 1588.593,200.354 1601.223,186.958 C1613.847,173.561 1625.133,159.495 1635.081,144.756 L1635.081,17.866 L1671.871,17.866 L1671.871,268.502 C1671.871,294.371 1665.835,316.743 1653.763,335.616 C1641.690,354.492 1625.065,370.156 1603.895,382.610 ZM1120.025,229.699 C1106.229,240.045 1088.452,247.856 1066.709,253.123 C1044.957,258.398 1018.753,261.028 988.098,261.028 L810.755,261.028 L810.755,412.790 L774.827,412.790 L774.827,17.866 L988.098,17.866 C1018.753,17.866 1044.957,20.503 1066.709,25.771 C1088.452,31.043 1106.229,38.754 1120.025,48.908 C1133.822,59.067 1143.927,71.714 1150.349,86.848 C1156.767,101.988 1159.979,119.427 1159.979,139.160 C1159.979,158.899 1156.767,176.338 1150.349,191.472 C1143.927,206.610 1133.822,219.351 1120.025,229.699 ZM1113.837,93.747 C1107.603,82.251 1098.012,73.389 1085.066,67.161 C1072.119,60.935 1055.723,56.768 1035.870,54.656 C1016.021,52.551 992.480,51.495 965.247,51.495 L810.755,51.495 L810.755,227.401 L965.247,227.401 C975.791,227.401 987.060,227.449 999.045,227.543 C1011.033,227.642 1022.877,227.067 1034.575,225.819 C1046.273,224.574 1057.447,222.370 1068.090,219.207 C1078.736,216.046 1088.135,211.210 1096.287,204.693 C1104.437,198.180 1110.959,189.652 1115.849,179.112 C1120.740,168.577 1123.185,155.256 1123.185,139.160 C1123.185,120.383 1120.071,105.244 1113.837,93.747 ZM500.234,182.844 C481.915,182.844 464.987,176.959 451.271,167.004 L341.009,307.802 C350.438,319.255 356.094,333.864 356.094,349.781 C356.094,386.543 325.943,416.344 288.750,416.344 C251.557,416.344 221.406,386.543 221.406,349.781 C221.406,322.702 237.767,299.402 261.250,289.006 L219.083,179.070 C213.610,180.808 207.776,181.750 201.719,181.750 C188.930,181.750 177.133,177.565 167.651,170.509 L83.392,262.838 C88.816,269.591 92.062,278.159 92.062,287.484 C92.062,309.274 74.350,326.937 52.500,326.937 C30.650,326.937 12.937,309.274 12.937,287.484 C12.937,265.695 30.650,248.031 52.500,248.031 C60.503,248.031 67.950,250.403 74.176,254.478 L158.544,162.030 C150.138,152.270 145.062,139.628 145.062,125.812 C145.062,94.919 170.428,69.875 201.719,69.875 C233.009,69.875 258.375,94.919 258.375,125.812 C258.375,146.342 247.171,164.286 230.472,174.016 L273.057,285.040 C278.093,283.852 283.346,283.219 288.750,283.219 C305.297,283.219 320.447,289.121 332.171,298.907 L441.768,158.957 C426.720,144.130 417.406,123.617 417.406,100.953 C417.406,55.726 454.489,19.062 500.234,19.062 C545.979,19.062 583.062,55.726 583.062,100.953 C583.062,146.180 545.979,182.844 500.234,182.844 Z" class="cls-1"/>
</svg>
